<mxfile host="65bd71144e">
    <diagram id="JxkEmRiab5LTO0_1BqB3" name="Diagrama">
        <mxGraphModel dx="1156" dy="1112" grid="1" gridSize="10" guides="1" tooltips="1" connect="1" arrows="1" fold="1" page="1" pageScale="1" pageWidth="827" pageHeight="1169" math="0" shadow="0">
            <root>
                <mxCell id="0"/>
                <mxCell id="1" parent="0"/>
                <mxCell id="4" value="Profesor" style="rounded=0;whiteSpace=wrap;html=1;fillColor=#6a00ff;fontColor=#ffffff;strokeColor=#3700CC;" parent="1" vertex="1">
                    <mxGeometry x="240" y="200" width="120" height="60" as="geometry"/>
                </mxCell>
                <mxCell id="5" value="id_profesor" style="ellipse;whiteSpace=wrap;html=1;fillColor=#d80073;fontColor=#ffffff;strokeColor=#A50040;" parent="1" vertex="1">
                    <mxGeometry x="180" y="50" width="120" height="60" as="geometry"/>
                </mxCell>
                <mxCell id="6" value="Nombre" style="ellipse;whiteSpace=wrap;html=1;strokeColor=#00FFFF;" parent="1" vertex="1">
                    <mxGeometry x="60" y="110" width="120" height="60" as="geometry"/>
                </mxCell>
                <mxCell id="7" value="2º_apellido" style="ellipse;whiteSpace=wrap;html=1;strokeColor=#00FFFF;" parent="1" vertex="1">
                    <mxGeometry x="50" y="220" width="120" height="60" as="geometry"/>
                </mxCell>
                <mxCell id="8" value="dob" style="ellipse;whiteSpace=wrap;html=1;strokeColor=#00FFFF;" parent="1" vertex="1">
                    <mxGeometry x="80" y="320" width="120" height="60" as="geometry"/>
                </mxCell>
                <mxCell id="10" value="idioma_1" style="ellipse;whiteSpace=wrap;html=1;strokeColor=#00FFFF;" parent="1" vertex="1">
                    <mxGeometry x="440" y="160" width="120" height="60" as="geometry"/>
                </mxCell>
                <mxCell id="11" value="idioma_2" style="ellipse;whiteSpace=wrap;html=1;strokeColor=#00FFFF;" parent="1" vertex="1">
                    <mxGeometry x="440" y="280" width="120" height="60" as="geometry"/>
                </mxCell>
                <mxCell id="12" value="tax_id" style="ellipse;whiteSpace=wrap;html=1;strokeColor=#00FFFF;" parent="1" vertex="1">
                    <mxGeometry x="340" y="350" width="120" height="60" as="geometry"/>
                </mxCell>
                <mxCell id="13" value="" style="endArrow=none;html=1;exitX=0.5;exitY=0;exitDx=0;exitDy=0;" parent="1" source="12" edge="1">
                    <mxGeometry width="50" height="50" relative="1" as="geometry">
                        <mxPoint x="260" y="300" as="sourcePoint"/>
                        <mxPoint x="310" y="260" as="targetPoint"/>
                    </mxGeometry>
                </mxCell>
                <mxCell id="17" value="" style="endArrow=none;html=1;" parent="1" source="10" target="4" edge="1">
                    <mxGeometry width="50" height="50" relative="1" as="geometry">
                        <mxPoint x="260" y="300" as="sourcePoint"/>
                        <mxPoint x="310" y="250" as="targetPoint"/>
                    </mxGeometry>
                </mxCell>
                <mxCell id="18" value="" style="endArrow=none;html=1;exitX=0;exitY=0;exitDx=0;exitDy=0;entryX=0.75;entryY=1;entryDx=0;entryDy=0;" parent="1" source="11" target="4" edge="1">
                    <mxGeometry width="50" height="50" relative="1" as="geometry">
                        <mxPoint x="260" y="300" as="sourcePoint"/>
                        <mxPoint x="310" y="250" as="targetPoint"/>
                    </mxGeometry>
                </mxCell>
                <mxCell id="19" value="" style="endArrow=none;html=1;exitX=1;exitY=0.5;exitDx=0;exitDy=0;" parent="1" source="7" edge="1">
                    <mxGeometry width="50" height="50" relative="1" as="geometry">
                        <mxPoint x="260" y="300" as="sourcePoint"/>
                        <mxPoint x="240" y="250" as="targetPoint"/>
                    </mxGeometry>
                </mxCell>
                <mxCell id="20" value="" style="endArrow=none;html=1;exitX=0.939;exitY=0.177;exitDx=0;exitDy=0;exitPerimeter=0;" parent="1" source="8" edge="1">
                    <mxGeometry width="50" height="50" relative="1" as="geometry">
                        <mxPoint x="210" y="310" as="sourcePoint"/>
                        <mxPoint x="260" y="260" as="targetPoint"/>
                        <Array as="points"/>
                    </mxGeometry>
                </mxCell>
                <mxCell id="22" value="" style="endArrow=none;html=1;" parent="1" target="28" edge="1">
                    <mxGeometry width="50" height="50" relative="1" as="geometry">
                        <mxPoint x="340" y="200" as="sourcePoint"/>
                        <mxPoint x="380" y="160" as="targetPoint"/>
                    </mxGeometry>
                </mxCell>
                <mxCell id="23" value="" style="endArrow=none;html=1;" parent="1" source="4" target="5" edge="1">
                    <mxGeometry width="50" height="50" relative="1" as="geometry">
                        <mxPoint x="260" y="300" as="sourcePoint"/>
                        <mxPoint x="310" y="250" as="targetPoint"/>
                    </mxGeometry>
                </mxCell>
                <mxCell id="25" value="" style="endArrow=none;html=1;exitX=0.964;exitY=0.767;exitDx=0;exitDy=0;exitPerimeter=0;" parent="1" source="6" target="4" edge="1">
                    <mxGeometry width="50" height="50" relative="1" as="geometry">
                        <mxPoint x="190" y="210" as="sourcePoint"/>
                        <mxPoint x="240" y="160" as="targetPoint"/>
                    </mxGeometry>
                </mxCell>
                <mxCell id="26" value="Cliente" style="rounded=0;whiteSpace=wrap;html=1;fillColor=#6a00ff;fontColor=#ffffff;strokeColor=#000000;strokeWidth=0;" parent="1" vertex="1">
                    <mxGeometry x="800" y="200" width="120" height="60" as="geometry"/>
                </mxCell>
                <mxCell id="27" value="industria" style="ellipse;whiteSpace=wrap;html=1;strokeColor=#00FFFF;" parent="1" vertex="1">
                    <mxGeometry x="1040" y="280" width="120" height="60" as="geometry"/>
                </mxCell>
                <mxCell id="28" value="telefono_no" style="ellipse;whiteSpace=wrap;html=1;strokeColor=#00FFFF;" parent="1" vertex="1">
                    <mxGeometry x="354" y="70" width="120" height="60" as="geometry"/>
                </mxCell>
                <mxCell id="29" value="DIrección" style="ellipse;whiteSpace=wrap;html=1;strokeColor=#00FFFF;" parent="1" vertex="1">
                    <mxGeometry x="1080" y="200" width="120" height="60" as="geometry"/>
                </mxCell>
                <mxCell id="30" value="client_name" style="ellipse;whiteSpace=wrap;html=1;strokeColor=#00FFFF;" parent="1" vertex="1">
                    <mxGeometry x="900" y="100" width="120" height="60" as="geometry"/>
                </mxCell>
                <mxCell id="31" value="cliente_id" style="ellipse;whiteSpace=wrap;html=1;fillColor=#d80073;fontColor=#ffffff;strokeColor=#A50040;" parent="1" vertex="1">
                    <mxGeometry x="670" y="100" width="120" height="60" as="geometry"/>
                </mxCell>
                <mxCell id="32" value="" style="endArrow=none;html=1;exitX=0;exitY=0;exitDx=0;exitDy=0;entryX=1;entryY=1;entryDx=0;entryDy=0;" parent="1" source="27" target="26" edge="1">
                    <mxGeometry width="50" height="50" relative="1" as="geometry">
                        <mxPoint x="760" y="310" as="sourcePoint"/>
                        <mxPoint x="810" y="260" as="targetPoint"/>
                    </mxGeometry>
                </mxCell>
                <mxCell id="33" value="" style="endArrow=none;html=1;exitX=-0.002;exitY=0.357;exitDx=0;exitDy=0;exitPerimeter=0;entryX=1;entryY=0.5;entryDx=0;entryDy=0;" parent="1" source="29" target="26" edge="1">
                    <mxGeometry width="50" height="50" relative="1" as="geometry">
                        <mxPoint x="860" y="310" as="sourcePoint"/>
                        <mxPoint x="910" y="260" as="targetPoint"/>
                        <Array as="points"/>
                    </mxGeometry>
                </mxCell>
                <mxCell id="34" value="" style="endArrow=none;html=1;exitX=0.153;exitY=-0.027;exitDx=0;exitDy=0;exitPerimeter=0;entryX=0.749;entryY=0.922;entryDx=0;entryDy=0;entryPerimeter=0;" parent="1" source="26" target="31" edge="1">
                    <mxGeometry width="50" height="50" relative="1" as="geometry">
                        <mxPoint x="740" y="200" as="sourcePoint"/>
                        <mxPoint x="770" y="130" as="targetPoint"/>
                    </mxGeometry>
                </mxCell>
                <mxCell id="35" value="" style="endArrow=none;html=1;entryX=0;entryY=1;entryDx=0;entryDy=0;" parent="1" target="30" edge="1">
                    <mxGeometry width="50" height="50" relative="1" as="geometry">
                        <mxPoint x="880" y="200" as="sourcePoint"/>
                        <mxPoint x="930" y="150" as="targetPoint"/>
                    </mxGeometry>
                </mxCell>
                <mxCell id="37" value="Curso" style="rounded=0;whiteSpace=wrap;html=1;fillColor=#6a00ff;fontColor=#ffffff;strokeColor=#3700CC;" parent="1" vertex="1">
                    <mxGeometry x="232" y="860" width="120" height="60" as="geometry"/>
                </mxCell>
                <mxCell id="38" value="data_inicio" style="ellipse;whiteSpace=wrap;html=1;strokeColor=#00CCCC;" parent="1" vertex="1">
                    <mxGeometry x="370" y="750" width="120" height="60" as="geometry"/>
                </mxCell>
                <mxCell id="39" value="Idioma" style="ellipse;whiteSpace=wrap;html=1;strokeColor=#00FFFF;" parent="1" vertex="1">
                    <mxGeometry x="430" y="810" width="120" height="60" as="geometry"/>
                </mxCell>
                <mxCell id="40" value="in_escuela" style="ellipse;whiteSpace=wrap;html=1;strokeColor=#00FFFF;" parent="1" vertex="1">
                    <mxGeometry x="440" y="940" width="120" height="60" as="geometry"/>
                </mxCell>
                <mxCell id="41" value="curso_id" style="ellipse;whiteSpace=wrap;html=1;fillColor=#d80073;fontColor=#ffffff;strokeColor=#A50040;" parent="1" vertex="1">
                    <mxGeometry x="45" y="1010" width="120" height="60" as="geometry"/>
                </mxCell>
                <mxCell id="42" value="nome_curso" style="ellipse;whiteSpace=wrap;html=1;strokeColor=#00FFFF;" parent="1" vertex="1">
                    <mxGeometry x="45" y="900" width="120" height="60" as="geometry"/>
                </mxCell>
                <mxCell id="43" value="curso_duración" style="ellipse;whiteSpace=wrap;html=1;strokeColor=#00FFFF;" parent="1" vertex="1">
                    <mxGeometry x="65" y="760" width="120" height="60" as="geometry"/>
                </mxCell>
                <mxCell id="45" value="" style="endArrow=none;html=1;entryX=0.23;entryY=0.972;entryDx=0;entryDy=0;entryPerimeter=0;" parent="1" target="38" edge="1">
                    <mxGeometry width="50" height="50" relative="1" as="geometry">
                        <mxPoint x="350" y="870" as="sourcePoint"/>
                        <mxPoint x="365" y="810" as="targetPoint"/>
                        <Array as="points">
                            <mxPoint x="370" y="850"/>
                        </Array>
                    </mxGeometry>
                </mxCell>
                <mxCell id="47" value="" style="endArrow=none;html=1;entryX=0;entryY=0.5;entryDx=0;entryDy=0;exitX=1;exitY=0.25;exitDx=0;exitDy=0;" parent="1" source="37" target="39" edge="1">
                    <mxGeometry width="50" height="50" relative="1" as="geometry">
                        <mxPoint x="352" y="900" as="sourcePoint"/>
                        <mxPoint x="405" y="890" as="targetPoint"/>
                    </mxGeometry>
                </mxCell>
                <mxCell id="48" value="" style="endArrow=none;html=1;entryX=0;entryY=0.5;entryDx=0;entryDy=0;exitX=0.684;exitY=1.037;exitDx=0;exitDy=0;exitPerimeter=0;" parent="1" source="37" target="40" edge="1">
                    <mxGeometry width="50" height="50" relative="1" as="geometry">
                        <mxPoint x="305" y="980" as="sourcePoint"/>
                        <mxPoint x="355" y="930" as="targetPoint"/>
                    </mxGeometry>
                </mxCell>
                <mxCell id="49" value="" style="endArrow=none;html=1;exitX=0.325;exitY=0.999;exitDx=0;exitDy=0;exitPerimeter=0;entryX=0.781;entryY=0.024;entryDx=0;entryDy=0;entryPerimeter=0;" parent="1" source="37" target="41" edge="1">
                    <mxGeometry width="50" height="50" relative="1" as="geometry">
                        <mxPoint x="262" y="990" as="sourcePoint"/>
                        <mxPoint x="232" y="980" as="targetPoint"/>
                    </mxGeometry>
                </mxCell>
                <mxCell id="50" value="" style="endArrow=none;html=1;exitX=1;exitY=0.5;exitDx=0;exitDy=0;" parent="1" source="42" edge="1">
                    <mxGeometry width="50" height="50" relative="1" as="geometry">
                        <mxPoint x="185" y="940" as="sourcePoint"/>
                        <mxPoint x="235" y="890" as="targetPoint"/>
                    </mxGeometry>
                </mxCell>
                <mxCell id="52" value="" style="endArrow=none;html=1;entryX=0.25;entryY=0;entryDx=0;entryDy=0;exitX=0.909;exitY=0.8;exitDx=0;exitDy=0;exitPerimeter=0;" parent="1" source="43" target="37" edge="1">
                    <mxGeometry width="50" height="50" relative="1" as="geometry">
                        <mxPoint x="175" y="870" as="sourcePoint"/>
                        <mxPoint x="225" y="820" as="targetPoint"/>
                    </mxGeometry>
                </mxCell>
                <mxCell id="53" value="Profesor" style="ellipse;whiteSpace=wrap;html=1;strokeColor=#00FFFF;" parent="1" vertex="1">
                    <mxGeometry x="155" y="1040" width="120" height="60" as="geometry"/>
                </mxCell>
                <mxCell id="54" value="nível" style="ellipse;whiteSpace=wrap;html=1;strokeColor=#00FFFF;" parent="1" vertex="1">
                    <mxGeometry x="345" y="1040" width="120" height="60" as="geometry"/>
                </mxCell>
                <mxCell id="55" value="" style="endArrow=none;html=1;entryX=0.5;entryY=1;entryDx=0;entryDy=0;" parent="1" source="53" target="37" edge="1">
                    <mxGeometry width="50" height="50" relative="1" as="geometry">
                        <mxPoint x="235" y="1060" as="sourcePoint"/>
                        <mxPoint x="285" y="1010" as="targetPoint"/>
                    </mxGeometry>
                </mxCell>
                <mxCell id="56" value="" style="endArrow=none;html=1;exitX=0.5;exitY=0;exitDx=0;exitDy=0;" parent="1" source="54" target="37" edge="1">
                    <mxGeometry width="50" height="50" relative="1" as="geometry">
                        <mxPoint x="295" y="1050" as="sourcePoint"/>
                        <mxPoint x="345" y="1000" as="targetPoint"/>
                    </mxGeometry>
                </mxCell>
                <mxCell id="59" value="" style="endArrow=none;html=1;" parent="1" edge="1">
                    <mxGeometry width="50" height="50" relative="1" as="geometry">
                        <mxPoint x="300" y="550" as="sourcePoint"/>
                        <mxPoint x="300" y="260" as="targetPoint"/>
                    </mxGeometry>
                </mxCell>
                <mxCell id="61" value="Enseña" style="rhombus;whiteSpace=wrap;html=1;fillColor=#A24646;fontColor=#ffffff;strokeColor=#FFFFFF;strokeWidth=2;" parent="1" vertex="1">
                    <mxGeometry x="260" y="550" width="80" height="80" as="geometry"/>
                </mxCell>
                <mxCell id="63" value="N" style="text;html=1;align=center;verticalAlign=middle;resizable=0;points=[];autosize=1;strokeColor=none;fillColor=none;" parent="1" vertex="1">
                    <mxGeometry x="260" y="610" width="20" height="20" as="geometry"/>
                </mxCell>
                <mxCell id="64" value="1" style="text;html=1;align=center;verticalAlign=middle;resizable=0;points=[];autosize=1;strokeColor=none;fillColor=none;" parent="1" vertex="1">
                    <mxGeometry x="270" y="530" width="20" height="20" as="geometry"/>
                </mxCell>
                <mxCell id="67" value="Participante" style="rounded=0;whiteSpace=wrap;html=1;fillColor=#6a00ff;fontColor=#ffffff;strokeColor=#3700CC;" parent="1" vertex="1">
                    <mxGeometry x="1010" y="860" width="120" height="60" as="geometry"/>
                </mxCell>
                <mxCell id="68" value="participante_id" style="ellipse;whiteSpace=wrap;html=1;fillColor=#d80073;fontColor=#ffffff;strokeColor=#A50040;" parent="1" vertex="1">
                    <mxGeometry x="880" y="770" width="130" height="70" as="geometry"/>
                </mxCell>
                <mxCell id="69" value="cliente" style="ellipse;whiteSpace=wrap;html=1;strokeColor=#00FFFF;" parent="1" vertex="1">
                    <mxGeometry x="1190" y="860" width="130" height="70" as="geometry"/>
                </mxCell>
                <mxCell id="70" value="telefono_no" style="ellipse;whiteSpace=wrap;html=1;strokeColor=#00FFFF;" parent="1" vertex="1">
                    <mxGeometry x="1180" y="980" width="130" height="70" as="geometry"/>
                </mxCell>
                <mxCell id="71" value="primero_name" style="ellipse;whiteSpace=wrap;html=1;strokeColor=#00FFFF;" parent="1" vertex="1">
                    <mxGeometry x="850" y="960" width="130" height="70" as="geometry"/>
                </mxCell>
                <mxCell id="72" value="ultimo_name" style="ellipse;whiteSpace=wrap;html=1;strokeColor=#00FFFF;" parent="1" vertex="1">
                    <mxGeometry x="867" y="1060" width="130" height="70" as="geometry"/>
                </mxCell>
                <mxCell id="75" value="" style="endArrow=none;html=1;" parent="1" source="71" edge="1">
                    <mxGeometry width="50" height="50" relative="1" as="geometry">
                        <mxPoint x="1070" y="1030" as="sourcePoint"/>
                        <mxPoint x="1050" y="920" as="targetPoint"/>
                        <Array as="points">
                            <mxPoint x="1050" y="1000"/>
                        </Array>
                    </mxGeometry>
                </mxCell>
                <mxCell id="76" value="" style="endArrow=none;html=1;exitX=0.981;exitY=0.317;exitDx=0;exitDy=0;exitPerimeter=0;" parent="1" source="72" target="67" edge="1">
                    <mxGeometry width="50" height="50" relative="1" as="geometry">
                        <mxPoint x="1070" y="1030" as="sourcePoint"/>
                        <mxPoint x="1120" y="980" as="targetPoint"/>
                        <Array as="points">
                            <mxPoint x="1070" y="1082"/>
                        </Array>
                    </mxGeometry>
                </mxCell>
                <mxCell id="77" value="" style="endArrow=none;html=1;entryX=0.813;entryY=1.023;entryDx=0;entryDy=0;entryPerimeter=0;" parent="1" target="67" edge="1">
                    <mxGeometry width="50" height="50" relative="1" as="geometry">
                        <mxPoint x="1180" y="1010" as="sourcePoint"/>
                        <mxPoint x="1110" y="930" as="targetPoint"/>
                        <Array as="points">
                            <mxPoint x="1150" y="1015"/>
                        </Array>
                    </mxGeometry>
                </mxCell>
                <mxCell id="79" value="" style="endArrow=none;html=1;exitX=1;exitY=0.75;exitDx=0;exitDy=0;entryX=0;entryY=0.5;entryDx=0;entryDy=0;" parent="1" source="67" target="69" edge="1">
                    <mxGeometry width="50" height="50" relative="1" as="geometry">
                        <mxPoint x="1130" y="930" as="sourcePoint"/>
                        <mxPoint x="1180" y="880" as="targetPoint"/>
                    </mxGeometry>
                </mxCell>
                <mxCell id="80" value="" style="endArrow=none;html=1;exitX=0.197;exitY=-0.015;exitDx=0;exitDy=0;exitPerimeter=0;entryX=1;entryY=1;entryDx=0;entryDy=0;" parent="1" source="67" target="68" edge="1">
                    <mxGeometry width="50" height="50" relative="1" as="geometry">
                        <mxPoint x="930" y="880" as="sourcePoint"/>
                        <mxPoint x="980" y="830" as="targetPoint"/>
                    </mxGeometry>
                </mxCell>
                <mxCell id="85" value="trabaja&lt;br&gt;para" style="rhombus;whiteSpace=wrap;html=1;fillColor=#A24646;fontColor=#ffffff;strokeColor=#FFFFFF;strokeWidth=2;" parent="1" vertex="1">
                    <mxGeometry x="1027" y="545" width="103" height="80" as="geometry"/>
                </mxCell>
                <mxCell id="89" value="Ofertas" style="rhombus;whiteSpace=wrap;html=1;fillColor=#A24646;fontColor=#ffffff;strokeColor=#FFFFFF;strokeWidth=2;" parent="1" vertex="1">
                    <mxGeometry x="580" y="460" width="100" height="70" as="geometry"/>
                </mxCell>
                <mxCell id="93" value="Takes" style="rhombus;whiteSpace=wrap;html=1;fillColor=#A24646;strokeColor=#FFFFFF;strokeWidth=2;" parent="1" vertex="1">
                    <mxGeometry x="690" y="855" width="80" height="80" as="geometry"/>
                </mxCell>
                <mxCell id="97" value="" style="shape=link;html=1;exitX=0.5;exitY=1;exitDx=0;exitDy=0;" parent="1" source="61" edge="1">
                    <mxGeometry width="100" relative="1" as="geometry">
                        <mxPoint x="310" y="770" as="sourcePoint"/>
                        <mxPoint x="300" y="860" as="targetPoint"/>
                    </mxGeometry>
                </mxCell>
                <mxCell id="99" value="" style="shape=link;html=1;" parent="1" source="37" edge="1">
                    <mxGeometry width="100" relative="1" as="geometry">
                        <mxPoint x="590" y="894.5" as="sourcePoint"/>
                        <mxPoint x="690" y="894.5" as="targetPoint"/>
                    </mxGeometry>
                </mxCell>
                <mxCell id="101" value="" style="shape=link;html=1;exitX=1;exitY=0.5;exitDx=0;exitDy=0;" parent="1" source="93" edge="1">
                    <mxGeometry width="100" relative="1" as="geometry">
                        <mxPoint x="790" y="890" as="sourcePoint"/>
                        <mxPoint x="1010" y="895" as="targetPoint"/>
                    </mxGeometry>
                </mxCell>
                <mxCell id="102" value="N" style="text;html=1;align=center;verticalAlign=middle;resizable=0;points=[];autosize=1;strokeColor=none;fillColor=none;" parent="1" vertex="1">
                    <mxGeometry x="770" y="870" width="20" height="20" as="geometry"/>
                </mxCell>
                <mxCell id="103" value="M" style="text;html=1;align=center;verticalAlign=middle;resizable=0;points=[];autosize=1;strokeColor=none;fillColor=none;" parent="1" vertex="1">
                    <mxGeometry x="660" y="870" width="30" height="20" as="geometry"/>
                </mxCell>
                <mxCell id="104" value="" style="shape=link;html=1;exitX=0.5;exitY=1;exitDx=0;exitDy=0;" parent="1" source="26" target="85" edge="1">
                    <mxGeometry width="100" relative="1" as="geometry">
                        <mxPoint x="640" y="460" as="sourcePoint"/>
                        <mxPoint x="1030" y="430" as="targetPoint"/>
                        <Array as="points">
                            <mxPoint x="860" y="430"/>
                            <mxPoint x="1080" y="430"/>
                        </Array>
                    </mxGeometry>
                </mxCell>
                <mxCell id="105" value="" style="shape=link;html=1;exitX=0.5;exitY=1;exitDx=0;exitDy=0;" parent="1" source="85" edge="1">
                    <mxGeometry width="100" relative="1" as="geometry">
                        <mxPoint x="990" y="660" as="sourcePoint"/>
                        <mxPoint x="1079" y="860" as="targetPoint"/>
                    </mxGeometry>
                </mxCell>
                <mxCell id="106" value="1" style="text;html=1;align=center;verticalAlign=middle;resizable=0;points=[];autosize=1;strokeColor=none;fillColor=none;" parent="1" vertex="1">
                    <mxGeometry x="1090" y="530" width="20" height="20" as="geometry"/>
                </mxCell>
                <mxCell id="107" value="N" style="text;html=1;align=center;verticalAlign=middle;resizable=0;points=[];autosize=1;" parent="1" vertex="1">
                    <mxGeometry x="1090" y="620" width="20" height="20" as="geometry"/>
                </mxCell>
                <mxCell id="108" value="" style="shape=link;html=1;entryX=0.101;entryY=1.049;entryDx=0;entryDy=0;entryPerimeter=0;exitX=1;exitY=0.5;exitDx=0;exitDy=0;" parent="1" source="89" target="26" edge="1">
                    <mxGeometry width="100" relative="1" as="geometry">
                        <mxPoint x="812" y="490" as="sourcePoint"/>
                        <mxPoint x="780" y="360" as="targetPoint"/>
                        <Array as="points">
                            <mxPoint x="812" y="495"/>
                        </Array>
                    </mxGeometry>
                </mxCell>
                <mxCell id="109" value="1" style="text;html=1;align=center;verticalAlign=middle;resizable=0;points=[];autosize=1;strokeColor=none;fillColor=none;" parent="1" vertex="1">
                    <mxGeometry x="670" y="470" width="20" height="20" as="geometry"/>
                </mxCell>
                <mxCell id="110" value="N" style="text;html=1;align=center;verticalAlign=middle;resizable=0;points=[];autosize=1;strokeColor=none;fillColor=none;" parent="1" vertex="1">
                    <mxGeometry x="560" y="470" width="20" height="20" as="geometry"/>
                </mxCell>
                <mxCell id="118" value="" style="shape=link;html=1;" parent="1" edge="1">
                    <mxGeometry width="100" relative="1" as="geometry">
                        <mxPoint x="340" y="860" as="sourcePoint"/>
                        <mxPoint x="580" y="494.5" as="targetPoint"/>
                        <Array as="points">
                            <mxPoint x="350" y="495"/>
                        </Array>
                    </mxGeometry>
                </mxCell>
            </root>
        </mxGraphModel>
    </diagram>
</mxfile>